<svg xmlns="http://www.w3.org/2000/svg" version="1.1" xmlns:xlink="http://www.w3.org/1999/xlink" width="200" height="200"><svg xmlns="http://www.w3.org/2000/svg" version="1.1" xmlns:xlink="http://www.w3.org/1999/xlink" viewBox="0 0 200 200"><rect width="200" height="200" fill="url('#gradient')"></rect><defs><linearGradient id="SvgjsLinearGradient1001" gradientTransform="rotate(45 0.5 0.5)"><stop offset="0%" stop-color="#dde5dc"></stop><stop offset="100%" stop-color="#739bab"></stop></linearGradient></defs><g><g fill="#b95232" transform="matrix(0.9737439907020973,0,0,0.9737439907020973,8.953960115926332,105.32512962212937)" stroke="#739bab" stroke-width="0"><path d="M5.75 0L1.07 0L1.07-14.22L5.65-14.22Q7.54-14.22 9.04-13.36Q10.55-12.51 11.39-10.95Q12.24-9.39 12.25-7.46L12.25-7.46L12.25-6.81Q12.25-4.85 11.42-3.31Q10.60-1.76 9.10-0.88Q7.60-0.01 5.75 0L5.75 0ZM5.65-11.57L4.50-11.57L4.50-2.64L5.69-2.64Q7.17-2.64 7.96-3.69Q8.75-4.74 8.75-6.81L8.75-6.81L8.75-7.42Q8.75-9.48 7.96-10.53Q7.17-11.57 5.65-11.57L5.65-11.57ZM18.96 0.20L18.96 0.20Q16.53 0.20 15.03-1.25Q13.53-2.71 13.53-5.03L13.53-5.03L13.53-5.30Q13.53-6.92 14.13-8.16Q14.73-9.40 15.88-10.08Q17.03-10.76 18.61-10.76L18.61-10.76Q20.84-10.76 22.13-9.38Q23.42-8.00 23.42-5.53L23.42-5.53L23.42-4.25L16.88-4.25Q17.05-3.36 17.65-2.85Q18.24-2.34 19.19-2.34L19.19-2.34Q20.75-2.34 21.63-3.44L21.63-3.44L23.13-1.66Q22.52-0.81 21.39-0.31Q20.26 0.20 18.96 0.20ZM18.59-8.22L18.59-8.22Q17.15-8.22 16.88-6.31L16.88-6.31L20.20-6.31L20.20-6.56Q20.21-7.35 19.79-7.79Q19.38-8.22 18.59-8.22ZM29.21-2.34L29.21-2.34Q29.90-2.34 30.28-2.72Q30.66-3.10 30.65-3.77L30.65-3.77L33.74-3.77Q33.74-2.03 32.50-0.92Q31.25 0.20 29.29 0.20L29.29 0.20Q26.98 0.20 25.65-1.25Q24.33-2.70 24.33-5.25L24.33-5.25L24.33-5.39Q24.33-6.99 24.92-8.22Q25.51-9.44 26.62-10.10Q27.73-10.76 29.26-10.76L29.26-10.76Q31.32-10.76 32.53-9.62Q33.74-8.48 33.74-6.52L33.74-6.52L30.65-6.52Q30.65-7.34 30.25-7.78Q29.85-8.22 29.18-8.22L29.18-8.22Q27.90-8.22 27.69-6.59L27.69-6.59Q27.62-6.07 27.62-5.17L27.62-5.17Q27.62-3.57 28.00-2.96Q28.38-2.34 29.21-2.34ZM44.38 0L41.08 0Q40.91-0.32 40.77-0.95L40.77-0.95Q39.86 0.20 38.23 0.20L38.23 0.20Q36.74 0.20 35.69-0.71Q34.65-1.61 34.65-2.98L34.65-2.98Q34.65-4.70 35.92-5.58Q37.19-6.46 39.61-6.46L39.61-6.46L40.63-6.46L40.63-7.01Q40.63-8.47 39.37-8.47L39.37-8.47Q38.19-8.47 38.19-7.31L38.19-7.31L34.90-7.31Q34.90-8.85 36.21-9.80Q37.51-10.76 39.53-10.76Q41.55-10.76 42.72-9.78Q43.90-8.79 43.93-7.07L43.93-7.07L43.93-2.39Q43.95-0.94 44.38-0.17L44.38-0.17L44.38 0ZM39.02-2.15L39.02-2.15Q39.64-2.15 40.04-2.41Q40.45-2.68 40.63-3.01L40.63-3.01L40.63-4.70L39.67-4.70Q37.95-4.70 37.95-3.15L37.95-3.15Q37.95-2.71 38.25-2.43Q38.55-2.15 39.02-2.15ZM46.29-13.19L49.58-13.19L49.58-10.57L51.32-10.57L51.32-8.28L49.58-8.28L49.58-3.45Q49.58-2.85 49.79-2.62Q50.01-2.38 50.64-2.38L50.64-2.38Q51.13-2.38 51.46-2.44L51.46-2.44L51.46-0.09Q50.58 0.20 49.61 0.20L49.61 0.20Q47.91 0.20 47.10-0.61Q46.29-1.41 46.29-3.04L46.29-3.04L46.29-8.28L44.94-8.28L44.94-10.57L46.29-10.57L46.29-13.19ZM59.00 0L58.91-1.14Q57.86 0.20 56.08 0.20L56.08 0.20Q54.35 0.20 53.45-0.82Q52.56-1.83 52.56-3.72L52.56-3.72L52.56-10.57L55.85-10.57L55.85-3.70Q55.85-2.34 57.17-2.34L57.17-2.34Q58.30-2.34 58.78-3.15L58.78-3.15L58.78-10.57L62.09-10.57L62.09 0L59.00 0ZM70.34-10.64L70.28-7.59L69.20-7.67Q67.65-7.67 67.21-6.69L67.21-6.69L67.21 0L63.92 0L63.92-10.57L67.00-10.57L67.11-9.21Q67.94-10.76 69.42-10.76L69.42-10.76Q69.95-10.76 70.34-10.64L70.34-10.64ZM83.94-3.78L83.94-3.78Q83.94-4.53 83.40-4.95Q82.87-5.37 81.53-5.82Q80.20-6.27 79.35-6.69L79.35-6.69Q76.58-8.05 76.58-10.42L76.58-10.42Q76.58-11.60 77.27-12.50Q77.96-13.41 79.22-13.91Q80.48-14.41 82.05-14.41L82.05-14.41Q83.58-14.41 84.80-13.87Q86.02-13.32 86.69-12.31Q87.36-11.30 87.36-10L87.36-10L83.95-10Q83.95-10.87 83.41-11.35Q82.88-11.83 81.97-11.83L81.97-11.83Q81.05-11.83 80.52-11.42Q79.99-11.02 79.99-10.39L79.99-10.39Q79.99-9.84 80.58-9.40Q81.16-8.96 82.64-8.48Q84.11-8.01 85.06-7.46L85.06-7.46Q87.36-6.13 87.36-3.80L87.36-3.80Q87.36-1.93 85.96-0.87Q84.55 0.20 82.10 0.20L82.10 0.20Q80.37 0.20 78.97-0.42Q77.57-1.04 76.86-2.12Q76.15-3.20 76.15-4.61L76.15-4.61L79.59-4.61Q79.59-3.47 80.18-2.92Q80.77-2.38 82.10-2.38L82.10-2.38Q82.95-2.38 83.44-2.75Q83.94-3.12 83.94-3.78ZM95.36 0L95.26-1.14Q94.22 0.20 92.44 0.20L92.44 0.20Q90.70 0.20 89.81-0.82Q88.92-1.83 88.92-3.72L88.92-3.72L88.92-10.57L92.21-10.57L92.21-3.70Q92.21-2.34 93.53-2.34L93.53-2.34Q94.66-2.34 95.14-3.15L95.14-3.15L95.14-10.57L98.45-10.57L98.45 0L95.36 0ZM110.06-5.36L110.06-5.21Q110.06-2.74 108.95-1.27Q107.84 0.20 105.96 0.20L105.96 0.20Q104.50 0.20 103.56-0.87L103.56-0.87L103.56 4.06L100.27 4.06L100.27-10.57L103.35-10.57L103.45-9.59Q104.39-10.76 105.94-10.76L105.94-10.76Q107.89-10.76 108.97-9.32Q110.06-7.88 110.06-5.36L110.06-5.36ZM106.77-5.06L106.77-5.41Q106.77-8.22 105.13-8.22L105.13-8.22Q103.96-8.22 103.56-7.38L103.56-7.38L103.56-3.22Q103.99-2.34 105.15-2.34L105.15-2.34Q106.72-2.34 106.77-5.06L106.77-5.06ZM121.32-5.36L121.32-5.21Q121.32-2.74 120.21-1.27Q119.10 0.20 117.22 0.20L117.22 0.20Q115.76 0.20 114.82-0.87L114.82-0.87L114.82 4.06L111.53 4.06L111.53-10.57L114.61-10.57L114.71-9.59Q115.65-10.76 117.20-10.76L117.20-10.76Q119.15-10.76 120.23-9.32Q121.32-7.88 121.32-5.36L121.32-5.36ZM118.03-5.06L118.03-5.41Q118.03-8.22 116.39-8.22L116.39-8.22Q115.21-8.22 114.82-7.38L114.82-7.38L114.82-3.22Q115.25-2.34 116.41-2.34L116.41-2.34Q117.98-2.34 118.03-5.06L118.03-5.06ZM127.88 0.20L127.88 0.20Q125.45 0.20 123.95-1.25Q122.44-2.71 122.44-5.03L122.44-5.03L122.44-5.30Q122.44-6.92 123.04-8.16Q123.64-9.40 124.79-10.08Q125.95-10.76 127.53-10.76L127.53-10.76Q129.76-10.76 131.04-9.38Q132.33-8.00 132.33-5.53L132.33-5.53L132.33-4.25L125.79-4.25Q125.97-3.36 126.56-2.85Q127.16-2.34 128.11-2.34L128.11-2.34Q129.67-2.34 130.55-3.44L130.55-3.44L132.05-1.66Q131.44-0.81 130.31-0.31Q129.18 0.20 127.88 0.20ZM127.51-8.22L127.51-8.22Q126.06-8.22 125.79-6.31L125.79-6.31L129.11-6.31L129.11-6.56Q129.13-7.35 128.71-7.79Q128.29-8.22 127.51-8.22ZM140.11-10.64L140.05-7.59L138.96-7.67Q137.41-7.67 136.97-6.69L136.97-6.69L136.97 0L133.68 0L133.68-10.57L136.77-10.57L136.88-9.21Q137.71-10.76 139.19-10.76L139.19-10.76Q139.72-10.76 140.11-10.64L140.11-10.64ZM154.46-4.81L157.87-4.81Q157.80-3.33 157.07-2.19Q156.34-1.05 155.01-0.43Q153.69 0.20 151.99 0.20L151.99 0.20Q149.19 0.20 147.58-1.63Q145.97-3.46 145.97-6.79L145.97-6.79L145.97-7.49Q145.97-9.58 146.69-11.15Q147.42-12.71 148.79-13.57Q150.16-14.42 151.95-14.42L151.95-14.42Q154.54-14.42 156.11-13.06Q157.69-11.70 157.90-9.31L157.90-9.31L154.48-9.31Q154.44-10.61 153.83-11.17Q153.21-11.74 151.95-11.74L151.95-11.74Q150.67-11.74 150.08-10.78Q149.48-9.82 149.45-7.72L149.45-7.72L149.45-6.72Q149.45-4.44 150.02-3.47Q150.60-2.49 151.99-2.49L151.99-2.49Q153.17-2.49 153.80-3.05Q154.42-3.60 154.46-4.81L154.46-4.81ZM162.81-15L162.81 0L159.51 0L159.51-15L162.81-15ZM171.23 0L171.13-1.14Q170.09 0.20 168.31 0.20L168.31 0.20Q166.57 0.20 165.68-0.82Q164.79-1.83 164.79-3.72L164.79-3.72L164.79-10.57L168.08-10.57L168.08-3.70Q168.08-2.34 169.39-2.34L169.39-2.34Q170.53-2.34 171.01-3.15L171.01-3.15L171.01-10.57L174.32-10.57L174.32 0L171.23 0ZM185.93-5.36L185.93-5.20Q185.93-2.60 184.85-1.20Q183.78 0.20 181.83 0.20L181.83 0.20Q180.21 0.20 179.23-1.08L179.23-1.08L179.09 0L176.14 0L176.14-15L179.43-15L179.43-9.72Q180.35-10.76 181.81-10.76L181.81-10.76Q183.78-10.76 184.85-9.35Q185.93-7.93 185.93-5.36L185.93-5.36ZM182.63-5.40L182.63-5.40Q182.63-6.92 182.22-7.57Q181.82-8.22 180.98-8.22L180.98-8.22Q179.86-8.22 179.43-7.37L179.43-7.37L179.43-3.17Q179.85-2.33 181.00-2.33L181.00-2.33Q182.16-2.33 182.47-3.47L182.47-3.47Q182.63-4.02 182.63-5.40Z"></path></g></g></svg><style>@media (prefers-color-scheme: light) { :root { filter: none; } }
@media (prefers-color-scheme: dark) { :root { filter: none; } }
</style></svg>